<svg xmlns="http://www.w3.org/2000/svg" xmlns:svg="http://www.w3.org/2000/svg" xmlns:xlink="http://www.w3.org/1999/xlink" id="svg655" width="1024" height="886pt" version="1.1" viewBox="0 0 767.5 886"><metadata id="metadata661"/><g id="graph0" class="graph" transform="scale(1 1) rotate(0) translate(4 882)"><title id="title10">mpc</title><polygon id="polygon12" fill="#fff" stroke="transparent" points="-4 4 -4 -882 763.5 -882 763.5 4 -4 4"/><g id="node1" class="node"><title id="title14">N1</title><g id="a_node1"><a id="a26" xlink:title="main.runCrisp (18.19s)"><polygon id="polygon16" fill="#edd9d5" stroke="#b21f00" points="425 -791 331 -791 331 -739 425 -739 425 -791"/><text id="text18" x="378" y="-777" font-family="Times,serif" font-size="17" text-anchor="middle">main</text><text id="text20" x="378" y="-763" font-family="Times,serif" font-size="17" text-anchor="middle">runCrisp</text><text id="text22" x="378" y="-752" font-family="Times,serif" font-size="10" text-anchor="middle">0.03s (0.087%)</text><text id="text24" x="378" y="-741" font-family="Times,serif" font-size="10" text-anchor="middle">of 18.19s (52.71%)</text></a></g></g><g id="node4" class="node"><title id="title30">N4</title><g id="a_node4"><a id="a42" xlink:title="github.com/ldsec/CRISP-private/zkbpp.Verify (7.03s)"><polygon id="polygon32" fill="#edded5" stroke="#b24300" points="425.5 -688 330.5 -688 330.5 -632 425.5 -632 425.5 -688"/><text id="text34" x="378" y="-675.2" font-family="Times,serif" font-size="15" text-anchor="middle">zkbpp</text><text id="text36" x="378" y="-660.2" font-family="Times,serif" font-size="15" text-anchor="middle">Verify</text><text id="text38" x="378" y="-646.2" font-family="Times,serif" font-size="11" text-anchor="middle">0.16s (0.46%)</text><text id="text40" x="378" y="-634.2" font-family="Times,serif" font-size="11" text-anchor="middle">of 7.03s (20.37%)</text></a></g></g><g id="edge2" class="edge"><title id="title46">N1-&gt;N4</title><g id="a_edge2"><a id="a52" xlink:title="main.runCrisp -&gt; github.com/ldsec/CRISP-private/zkbpp.Verify (7.03s)"><path id="path48" fill="none" stroke="#b24300" stroke-width="2" d="M378,-738.8C378,-726.68 378,-711.9 378,-698.48"/><polygon id="polygon50" fill="#b24300" stroke="#b24300" stroke-width="2" points="381.5 -698.1 378 -688.1 374.5 -698.1 381.5 -698.1"/></a></g><g id="a_edge2-label"><a id="a57" xlink:title="main.runCrisp -&gt; github.com/ldsec/CRISP-private/zkbpp.Verify (7.03s)"><text id="text55" x="395" y="-709.8" font-family="Times,serif" font-size="14" text-anchor="middle">7.03s</text></a></g></g><g id="node8" class="node"><title id="title61">N8</title><g id="a_node8"><a id="a71" xlink:title="github.com/ldsec/CRISP-private/zkbpp.Prove (6.82s)"><polygon id="polygon63" fill="#edded5" stroke="#b24602" points="247 -678 167 -678 167 -642 247 -642 247 -678"/><text id="text65" x="207" y="-664.1" font-family="Times,serif" font-size="15" text-anchor="middle">zkbpp</text><text id="text67" x="207" y="-653.1" font-family="Times,serif" font-size="15" text-anchor="middle">Prove</text><text id="text69" x="207" y="-644.1" font-family="Times,serif" font-size="8" text-anchor="middle">0 of 6.82s (19.76%)</text></a></g></g><g id="edge3" class="edge"><title id="title75">N1-&gt;N8</title><g id="a_edge3"><a id="a81" xlink:title="main.runCrisp -&gt; github.com/ldsec/CRISP-private/zkbpp.Prove (6.82s)"><path id="path77" fill="none" stroke="#b24602" d="M336.17,-738.8C308.01,-721.84 271.21,-699.68 244.1,-683.34"/><polygon id="polygon79" fill="#b24602" stroke="#b24602" points="245.67 -680.21 235.3 -678.04 242.06 -686.2 245.67 -680.21"/></a></g><g id="a_edge3-label"><a id="a86" xlink:title="main.runCrisp -&gt; github.com/ldsec/CRISP-private/zkbpp.Prove (6.82s)"><text id="text84" x="320" y="-709.8" font-family="Times,serif" font-size="14" text-anchor="middle">6.82s</text></a></g></g><g id="node15" class="node"><title id="title90">N15</title><g id="a_node15"><a id="a100" xlink:title="github.com/ldsec/CRISP-private/zkbpp.Preprocess (4.03s)"><polygon id="polygon92" fill="#ede5df" stroke="#b27b4a" points="614 -678 534 -678 534 -642 614 -642 614 -678"/><text id="text94" x="574" y="-664.1" font-family="Times,serif" font-size="15" text-anchor="middle">zkbpp</text><text id="text96" x="574" y="-653.1" font-family="Times,serif" font-size="15" text-anchor="middle">Preprocess</text><text id="text98" x="574" y="-644.1" font-family="Times,serif" font-size="8" text-anchor="middle">0 of 4.03s (11.68%)</text></a></g></g><g id="edge8" class="edge"><title id="title104">N1-&gt;N15</title><g id="a_edge8"><a id="a110" xlink:title="main.runCrisp -&gt; github.com/ldsec/CRISP-private/zkbpp.Preprocess (4.03s)"><path id="path106" fill="none" stroke="#b27b4a" d="M425.45,-739.07C458.13,-721.89 501.15,-699.28 532.48,-682.82"/><polygon id="polygon108" fill="#b27b4a" stroke="#b27b4a" points="534.17 -685.88 541.4 -678.13 530.92 -679.69 534.17 -685.88"/></a></g><g id="a_edge8-label"><a id="a115" xlink:title="main.runCrisp -&gt; github.com/ldsec/CRISP-private/zkbpp.Preprocess (4.03s)"><text id="text113" x="505" y="-709.8" font-family="Times,serif" font-size="14" text-anchor="middle">4.03s</text></a></g></g><g id="node2" class="node"><title id="title119">N2</title><g id="a_node2"><a id="a131" xlink:title="main.runCrisp.func1 (9.33s)"><polygon id="polygon121" fill="#edddd5" stroke="#b23900" points="236 -421.5 156 -421.5 156 -377.5 236 -377.5 236 -421.5"/><text id="text123" x="196" y="-411.1" font-family="Times,serif" font-size="8" text-anchor="middle">main</text><text id="text125" x="196" y="-402.1" font-family="Times,serif" font-size="8" text-anchor="middle">runCrisp</text><text id="text127" x="196" y="-393.1" font-family="Times,serif" font-size="8" text-anchor="middle">func1</text><text id="text129" x="196" y="-384.1" font-family="Times,serif" font-size="8" text-anchor="middle">0 of 9.33s (27.04%)</text></a></g></g><g id="node14" class="node"><title id="title135">N14</title><g id="a_node14"><a id="a149" xlink:title="github.com/ldsec/CRISP-private/zkbpp.(*Circuit).MpcCRISP (2.68s)"><polygon id="polygon137" fill="#ede8e3" stroke="#b2926d" points="398.5 -297 267.5 -297 267.5 -194 398.5 -194 398.5 -297"/><text id="text139" x="333" y="-279.4" font-family="Times,serif" font-size="17" text-anchor="middle">zkbpp</text><text id="text141" x="333" y="-260.4" font-family="Times,serif" font-size="17" text-anchor="middle">(*Circuit)</text><text id="text143" x="333" y="-241.4" font-family="Times,serif" font-size="17" text-anchor="middle">MpcCRISP</text><text id="text145" x="333" y="-222.4" font-family="Times,serif" font-size="17" text-anchor="middle">1.92s (5.56%)</text><text id="text147" x="333" y="-203.4" font-family="Times,serif" font-size="17" text-anchor="middle">of 2.68s (7.77%)</text></a></g></g><g id="edge13" class="edge"><title id="title153">N2-&gt;N14</title><g id="a_edge13"><a id="a159" xlink:title="main.runCrisp.func1 -&gt; github.com/ldsec/CRISP-private/zkbpp.(*Circuit).MpcCRISP (2.68s)"><path id="path155" fill="none" stroke="#b2926d" d="M215.05,-377.37C231.98,-358.58 257.54,-330.22 280.54,-304.7"/><polygon id="polygon157" fill="#b2926d" stroke="#b2926d" points="283.17 -307.01 287.27 -297.24 277.97 -302.32 283.17 -307.01"/></a></g><g id="a_edge13-label"><a id="a164" xlink:title="main.runCrisp.func1 -&gt; github.com/ldsec/CRISP-private/zkbpp.(*Circuit).MpcCRISP (2.68s)"><text id="text162" x="282" y="-323.8" font-family="Times,serif" font-size="14" text-anchor="middle">2.68s</text></a></g></g><g id="node17" class="node"><title id="title168">N17</title><g id="a_node17"><a id="a182" xlink:title="github.com/ldsec/CRISP-private/zkbpp.(*Circuit).RqVarFromZqArray (6.66s)"><polygon id="polygon170" fill="#eddfd6" stroke="#b24906" points="249.5 -279.5 142.5 -279.5 142.5 -211.5 249.5 -211.5 249.5 -279.5"/><text id="text172" x="196" y="-266.7" font-family="Times,serif" font-size="11" text-anchor="middle">zkbpp</text><text id="text174" x="196" y="-254.7" font-family="Times,serif" font-size="11" text-anchor="middle">(*Circuit)</text><text id="text176" x="196" y="-242.7" font-family="Times,serif" font-size="11" text-anchor="middle">RqVarFromZqArray</text><text id="text178" x="196" y="-230.7" font-family="Times,serif" font-size="11" text-anchor="middle">0.16s (0.46%)</text><text id="text180" x="196" y="-218.7" font-family="Times,serif" font-size="11" text-anchor="middle">of 6.66s (19.30%)</text></a></g></g><g id="edge4" class="edge"><title id="title186">N2-&gt;N17</title><g id="a_edge4"><a id="a192" xlink:title="main.runCrisp.func1 -&gt; github.com/ldsec/CRISP-private/zkbpp.(*Circuit).RqVarFromZqArray (6.65s)"><path id="path188" fill="none" stroke="#b24906" d="M196,-377.37C196,-354.84 196,-318.56 196,-289.9"/><polygon id="polygon190" fill="#b24906" stroke="#b24906" points="199.5 -289.73 196 -279.73 192.5 -289.73 199.5 -289.73"/></a></g><g id="a_edge4-label"><a id="a197" xlink:title="main.runCrisp.func1 -&gt; github.com/ldsec/CRISP-private/zkbpp.(*Circuit).RqVarFromZqArray (6.65s)"><text id="text195" x="213" y="-323.8" font-family="Times,serif" font-size="14" text-anchor="middle">6.65s</text></a></g></g><g id="node6" class="node"><title id="title201">N6</title><g id="a_node6"><a id="a213" xlink:title="github.com/ldsec/CRISP-private/zkbpp.(*Circuit).preprocess (5.51s)"><polygon id="polygon203" fill="#ede2da" stroke="#b26024" points="560 -561 480 -561 480 -517 560 -517 560 -561"/><text id="text205" x="520" y="-550.6" font-family="Times,serif" font-size="8" text-anchor="middle">zkbpp</text><text id="text207" x="520" y="-541.6" font-family="Times,serif" font-size="8" text-anchor="middle">(*Circuit)</text><text id="text209" x="520" y="-532.6" font-family="Times,serif" font-size="8" text-anchor="middle">preprocess</text><text id="text211" x="520" y="-523.6" font-family="Times,serif" font-size="8" text-anchor="middle">0 of 5.51s (15.97%)</text></a></g></g><g id="edge16" class="edge"><title id="title217">N4-&gt;N6</title><g id="a_edge16"><a id="a223" xlink:title="github.com/ldsec/CRISP-private/zkbpp.Verify -&gt; github.com/ldsec/CRISP-private/zkbpp.(*Circuit).preprocess (1.90s)"><path id="path219" fill="none" stroke="#b29d81" d="M400.92,-631.76C410.99,-620.78 423.38,-608.49 436,-599 449.67,-588.73 455.76,-590.47 470,-581 476.17,-576.9 482.48,-572.18 488.45,-567.45"/><polygon id="polygon221" fill="#b29d81" stroke="#b29d81" points="490.79 -570.06 496.34 -561.03 486.37 -564.63 490.79 -570.06"/></a></g><g id="a_edge16-label"><a id="a228" xlink:title="github.com/ldsec/CRISP-private/zkbpp.Verify -&gt; github.com/ldsec/CRISP-private/zkbpp.(*Circuit).preprocess (1.90s)"><text id="text226" x="453" y="-602.8" font-family="Times,serif" font-size="14" text-anchor="middle">1.90s</text></a></g></g><g id="node7" class="node"><title id="title232">N7</title><g id="a_node7"><a id="a246" xlink:title="github.com/ldsec/CRISP-private/zkbpp.(*Circuit).generateRandomZqElem (3.24s)"><polygon id="polygon234" fill="#ede7e2" stroke="#b2895e" points="623 -302 417 -302 417 -189 623 -189 623 -302"/><text id="text236" x="520" y="-282.8" font-family="Times,serif" font-size="19" text-anchor="middle">zkbpp</text><text id="text238" x="520" y="-261.8" font-family="Times,serif" font-size="19" text-anchor="middle">(*Circuit)</text><text id="text240" x="520" y="-240.8" font-family="Times,serif" font-size="19" text-anchor="middle">generateRandomZqElem</text><text id="text242" x="520" y="-219.8" font-family="Times,serif" font-size="19" text-anchor="middle">2.70s (7.82%)</text><text id="text244" x="520" y="-198.8" font-family="Times,serif" font-size="19" text-anchor="middle">of 3.24s (9.39%)</text></a></g></g><g id="edge21" class="edge"><title id="title250">N4-&gt;N7</title><g id="a_edge21"><a id="a256" xlink:title="github.com/ldsec/CRISP-private/zkbpp.Verify -&gt; github.com/ldsec/CRISP-private/zkbpp.(*Circuit).generateRandomZqElem (0.57s)"><path id="path252" fill="none" stroke="#b2aea3" d="M425.92,-635.98C440.16,-629.02 455.76,-621.3 470,-614 482.57,-607.56 484.84,-604.11 498,-599 528.35,-587.23 547.09,-605.07 569,-581 603.25,-543.37 604.59,-401.75 590,-353 585.63,-338.39 578.54,-323.93 570.51,-310.6"/><polygon id="polygon254" fill="#b2aea3" stroke="#b2aea3" points="573.4 -308.62 565.12 -302.01 567.47 -312.34 573.4 -308.62"/></a></g><g id="a_edge21-label"><a id="a261" xlink:title="github.com/ldsec/CRISP-private/zkbpp.Verify -&gt; github.com/ldsec/CRISP-private/zkbpp.(*Circuit).generateRandomZqElem (0.57s)"><text id="text259" x="615" y="-467.8" font-family="Times,serif" font-size="14" text-anchor="middle">0.57s</text></a></g></g><g id="node9" class="node"><title id="title265">N9</title><g id="a_node9"><a id="a277" xlink:title="github.com/ldsec/CRISP-private/zkbpp.computeCommit (1.63s)"><polygon id="polygon267" fill="#edeae7" stroke="#b2a188" points="229.5 -581 98.5 -581 98.5 -497 229.5 -497 229.5 -581"/><text id="text269" x="164" y="-563.4" font-family="Times,serif" font-size="17" text-anchor="middle">zkbpp</text><text id="text271" x="164" y="-544.4" font-family="Times,serif" font-size="17" text-anchor="middle">computeCommit</text><text id="text273" x="164" y="-525.4" font-family="Times,serif" font-size="17" text-anchor="middle">1.60s (4.64%)</text><text id="text275" x="164" y="-506.4" font-family="Times,serif" font-size="17" text-anchor="middle">of 1.63s (4.72%)</text></a></g></g><g id="edge19" class="edge"><title id="title281">N4-&gt;N9</title><g id="a_edge19"><a id="a287" xlink:title="github.com/ldsec/CRISP-private/zkbpp.Verify -&gt; github.com/ldsec/CRISP-private/zkbpp.computeCommit (0.64s)"><path id="path283" fill="none" stroke="#b2ada1" d="M330.19,-634.05C318.02,-627.6 304.99,-620.61 293,-614 275.38,-604.29 256.54,-593.63 238.85,-583.51"/><polygon id="polygon285" fill="#b2ada1" stroke="#b2ada1" points="240.13 -580.21 229.71 -578.27 236.65 -586.28 240.13 -580.21"/></a></g><g id="a_edge19-label"><a id="a292" xlink:title="github.com/ldsec/CRISP-private/zkbpp.Verify -&gt; github.com/ldsec/CRISP-private/zkbpp.computeCommit (0.64s)"><text id="text290" x="310" y="-602.8" font-family="Times,serif" font-size="14" text-anchor="middle">0.64s</text></a></g></g><g id="node12" class="node"><title id="title296">N12</title><g id="a_node12"><a id="a308" xlink:title="github.com/ldsec/CRISP-private/zkbpp.computeChallenge (0.90s)"><polygon id="polygon298" fill="#edecea" stroke="#b2aa9b" points="366.5 -573 247.5 -573 247.5 -505 366.5 -505 366.5 -573"/><text id="text300" x="307" y="-557.8" font-family="Times,serif" font-size="14" text-anchor="middle">zkbpp</text><text id="text302" x="307" y="-542.8" font-family="Times,serif" font-size="14" text-anchor="middle">computeChallenge</text><text id="text304" x="307" y="-527.8" font-family="Times,serif" font-size="14" text-anchor="middle">0.81s (2.35%)</text><text id="text306" x="307" y="-512.8" font-family="Times,serif" font-size="14" text-anchor="middle">of 0.90s (2.61%)</text></a></g></g><g id="edge24" class="edge"><title id="title312">N4-&gt;N12</title><g id="a_edge24"><a id="a318" xlink:title="github.com/ldsec/CRISP-private/zkbpp.Verify -&gt; github.com/ldsec/CRISP-private/zkbpp.computeChallenge (0.37s)"><path id="path314" fill="none" stroke="#b2b0a8" d="M351.09,-631.57C346.38,-626.01 341.79,-620.02 338,-614 331.92,-604.34 326.56,-593.29 322.08,-582.72"/><polygon id="polygon316" fill="#b2b0a8" stroke="#b2b0a8" points="325.22 -581.15 318.21 -573.2 318.73 -583.79 325.22 -581.15"/></a></g><g id="a_edge24-label"><a id="a323" xlink:title="github.com/ldsec/CRISP-private/zkbpp.Verify -&gt; github.com/ldsec/CRISP-private/zkbpp.computeChallenge (0.37s)"><text id="text321" x="355" y="-602.8" font-family="Times,serif" font-size="14" text-anchor="middle">0.37s</text></a></g></g><g id="node13" class="node"><title id="title327">N13</title><g id="a_node13"><a id="a339" xlink:title="github.com/ldsec/CRISP-private/zkbpp.computeOffsetCommit (0.75s)"><polygon id="polygon329" fill="#edecea" stroke="#b2ac9f" points="759.5 -573 616.5 -573 616.5 -505 759.5 -505 759.5 -573"/><text id="text331" x="688" y="-557.8" font-family="Times,serif" font-size="14" text-anchor="middle">zkbpp</text><text id="text333" x="688" y="-542.8" font-family="Times,serif" font-size="14" text-anchor="middle">computeOffsetCommit</text><text id="text335" x="688" y="-527.8" font-family="Times,serif" font-size="14" text-anchor="middle">0.73s (2.12%)</text><text id="text337" x="688" y="-512.8" font-family="Times,serif" font-size="14" text-anchor="middle">of 0.75s (2.17%)</text></a></g></g><g id="edge25" class="edge"><title id="title343">N4-&gt;N13</title><g id="a_edge25"><a id="a349" xlink:title="github.com/ldsec/CRISP-private/zkbpp.Verify -&gt; github.com/ldsec/CRISP-private/zkbpp.computeOffsetCommit (0.33s)"><path id="path345" fill="none" stroke="#b2b0a9" d="M425.59,-644.36C447.43,-636.73 473.25,-626.39 495,-614 504.35,-608.68 504.24,-603.53 514,-599 550.2,-582.18 564.15,-593.68 602,-581 605.77,-579.74 609.6,-578.35 613.43,-576.87"/><polygon id="polygon347" fill="#b2b0a9" stroke="#b2b0a9" points="614.98 -580.01 622.95 -573.03 612.36 -573.52 614.98 -580.01"/></a></g><g id="a_edge25-label"><a id="a354" xlink:title="github.com/ldsec/CRISP-private/zkbpp.Verify -&gt; github.com/ldsec/CRISP-private/zkbpp.computeOffsetCommit (0.33s)"><text id="text352" x="531" y="-602.8" font-family="Times,serif" font-size="14" text-anchor="middle">0.33s</text></a></g></g><g id="node18" class="node"><title id="title358">N18</title><g id="a_node18"><a id="a370" xlink:title="github.com/ldsec/CRISP-private/zkbpp.(*Circuit).verify (2.92s)"><polygon id="polygon360" fill="#ede8e3" stroke="#b28e66" points="461.5 -561 384.5 -561 384.5 -517 461.5 -517 461.5 -561"/><text id="text362" x="423" y="-550.6" font-family="Times,serif" font-size="8" text-anchor="middle">zkbpp</text><text id="text364" x="423" y="-541.6" font-family="Times,serif" font-size="8" text-anchor="middle">(*Circuit)</text><text id="text366" x="423" y="-532.6" font-family="Times,serif" font-size="8" text-anchor="middle">verify</text><text id="text368" x="423" y="-523.6" font-family="Times,serif" font-size="8" text-anchor="middle">0 of 2.92s (8.46%)</text></a></g></g><g id="edge12" class="edge"><title id="title374">N4-&gt;N18</title><g id="a_edge12"><a id="a380" xlink:title="github.com/ldsec/CRISP-private/zkbpp.Verify -&gt; github.com/ldsec/CRISP-private/zkbpp.(*Circuit).verify (2.92s)"><path id="path376" fill="none" stroke="#b28e66" d="M374.95,-631.81C374.67,-621.31 375.47,-609.35 379,-599 382.66,-588.26 389.08,-577.87 395.9,-568.88"/><polygon id="polygon378" fill="#b28e66" stroke="#b28e66" points="398.66 -571.03 402.21 -561.05 393.21 -566.64 398.66 -571.03"/></a></g><g id="a_edge12-label"><a id="a385" xlink:title="github.com/ldsec/CRISP-private/zkbpp.Verify -&gt; github.com/ldsec/CRISP-private/zkbpp.(*Circuit).verify (2.92s)"><text id="text383" x="396" y="-602.8" font-family="Times,serif" font-size="14" text-anchor="middle">2.92s</text></a></g></g><g id="node5" class="node"><title id="title389">N5</title><g id="a_node5"><a id="a403" xlink:title="github.com/ldsec/lattigo/ring.(*Ring).SetCoefficientsBigint (6.43s)"><polygon id="polygon391" fill="#eddfd7" stroke="#b24e0c" points="307.5 -138 84.5 -138 84.5 0 307.5 0 307.5 -138"/><text id="text393" x="196" y="-114.8" font-family="Times,serif" font-size="24" text-anchor="middle">ring</text><text id="text395" x="196" y="-88.8" font-family="Times,serif" font-size="24" text-anchor="middle">(*Ring)</text><text id="text397" x="196" y="-62.8" font-family="Times,serif" font-size="24" text-anchor="middle">SetCoefficientsBigint</text><text id="text399" x="196" y="-36.8" font-family="Times,serif" font-size="24" text-anchor="middle">6.29s (18.23%)</text><text id="text401" x="196" y="-10.8" font-family="Times,serif" font-size="24" text-anchor="middle">of 6.43s (18.63%)</text></a></g></g><g id="edge14" class="edge"><title id="title407">N6-&gt;N2</title><g id="a_edge14"><a id="a413" xlink:title="github.com/ldsec/CRISP-private/zkbpp.(*Circuit).preprocess -&gt; main.runCrisp.func1 (2.22s)"><path id="path409" fill="none" stroke="#b29979" d="M498.65,-516.81C490.31,-509.57 480.28,-502.04 470,-497 410.64,-467.94 389.46,-478.59 325,-464 289.45,-455.96 277.24,-462.99 245,-446 236.55,-441.55 228.47,-435.26 221.4,-428.78"/><polygon id="polygon411" fill="#b29979" stroke="#b29979" points="223.76 -426.19 214.15 -421.74 218.89 -431.22 223.76 -426.19"/></a></g><g id="a_edge14-label"><a id="a418" xlink:title="github.com/ldsec/CRISP-private/zkbpp.(*Circuit).preprocess -&gt; main.runCrisp.func1 (2.22s)"><text id="text416" x="437" y="-467.8" font-family="Times,serif" font-size="14" text-anchor="middle">2.22s</text></a></g></g><g id="node10" class="node"><title id="title422">N10</title><g id="a_node10"><a id="a436" xlink:title="github.com/ldsec/CRISP-private/zkbpp.(*Circuit).preprocessShares (3.29s)"><polygon id="polygon424" fill="#ede7e1" stroke="#b2885d" points="581 -446 459 -446 459 -353 581 -353 581 -446"/><text id="text426" x="520" y="-430" font-family="Times,serif" font-size="15" text-anchor="middle">zkbpp</text><text id="text428" x="520" y="-413" font-family="Times,serif" font-size="15" text-anchor="middle">(*Circuit)</text><text id="text430" x="520" y="-396" font-family="Times,serif" font-size="15" text-anchor="middle">preprocessShares</text><text id="text432" x="520" y="-379" font-family="Times,serif" font-size="15" text-anchor="middle">1.10s (3.19%)</text><text id="text434" x="520" y="-362" font-family="Times,serif" font-size="15" text-anchor="middle">of 3.29s (9.53%)</text></a></g></g><g id="edge10" class="edge"><title id="title440">N6-&gt;N10</title><g id="a_edge10"><a id="a446" xlink:title="github.com/ldsec/CRISP-private/zkbpp.(*Circuit).preprocess -&gt; github.com/ldsec/CRISP-private/zkbpp.(*Circuit).preprocessShares (3.29s)"><path id="path442" fill="none" stroke="#b2885d" d="M520,-516.82C520,-500.7 520,-477.73 520,-456.46"/><polygon id="polygon444" fill="#b2885d" stroke="#b2885d" points="523.5 -456.2 520 -446.2 516.5 -456.2 523.5 -456.2"/></a></g><g id="a_edge10-label"><a id="a451" xlink:title="github.com/ldsec/CRISP-private/zkbpp.(*Circuit).preprocess -&gt; github.com/ldsec/CRISP-private/zkbpp.(*Circuit).preprocessShares (3.29s)"><text id="text449" x="537" y="-467.8" font-family="Times,serif" font-size="14" text-anchor="middle">3.29s</text></a></g></g><g id="edge18" class="edge"><title id="title455">N8-&gt;N9</title><g id="a_edge18"><a id="a461" xlink:title="github.com/ldsec/CRISP-private/zkbpp.Prove -&gt; github.com/ldsec/CRISP-private/zkbpp.computeCommit (0.99s)"><path id="path457" fill="none" stroke="#b2a998" d="M176.26,-641.98C166.31,-634.76 156.44,-625.36 151,-614 147.59,-606.89 146.52,-599.01 146.87,-591.12"/><polygon id="polygon459" fill="#b2a998" stroke="#b2a998" points="150.34 -591.51 148 -581.17 143.39 -590.71 150.34 -591.51"/></a></g><g id="a_edge18-label"><a id="a466" xlink:title="github.com/ldsec/CRISP-private/zkbpp.Prove -&gt; github.com/ldsec/CRISP-private/zkbpp.computeCommit (0.99s)"><text id="text464" x="168" y="-602.8" font-family="Times,serif" font-size="14" text-anchor="middle">0.99s</text></a></g></g><g id="node11" class="node"><title id="title470">N11</title><g id="a_node11"><a id="a482" xlink:title="github.com/ldsec/CRISP-private/zkbpp.(*Circuit).Evaluate (5.30s)"><polygon id="polygon472" fill="#ede2da" stroke="#b26429" points="80 -561 0 -561 0 -517 80 -517 80 -561"/><text id="text474" x="40" y="-550.6" font-family="Times,serif" font-size="8" text-anchor="middle">zkbpp</text><text id="text476" x="40" y="-541.6" font-family="Times,serif" font-size="8" text-anchor="middle">(*Circuit)</text><text id="text478" x="40" y="-532.6" font-family="Times,serif" font-size="8" text-anchor="middle">Evaluate</text><text id="text480" x="40" y="-523.6" font-family="Times,serif" font-size="8" text-anchor="middle">0 of 5.30s (15.36%)</text></a></g></g><g id="edge6" class="edge"><title id="title486">N8-&gt;N11</title><g id="a_edge6"><a id="a492" xlink:title="github.com/ldsec/CRISP-private/zkbpp.Prove -&gt; github.com/ldsec/CRISP-private/zkbpp.(*Circuit).Evaluate (5.30s)"><path id="path488" fill="none" stroke="#b26429" d="M166.91,-644.43C148.66,-636.82 127.33,-626.47 110,-614 92.44,-601.36 75.67,-583.9 62.96,-569.12"/><polygon id="polygon490" fill="#b26429" stroke="#b26429" points="65.44 -566.63 56.33 -561.22 60.08 -571.13 65.44 -566.63"/></a></g><g id="a_edge6-label"><a id="a497" xlink:title="github.com/ldsec/CRISP-private/zkbpp.Prove -&gt; github.com/ldsec/CRISP-private/zkbpp.(*Circuit).Evaluate (5.30s)"><text id="text495" x="127" y="-602.8" font-family="Times,serif" font-size="14" text-anchor="middle">5.30s</text></a></g></g><g id="edge22" class="edge"><title id="title501">N8-&gt;N12</title><g id="a_edge22"><a id="a507" xlink:title="github.com/ldsec/CRISP-private/zkbpp.Prove -&gt; github.com/ldsec/CRISP-private/zkbpp.computeChallenge (0.53s)"><path id="path503" fill="none" stroke="#b2aea4" d="M203.05,-641.78C201.1,-629.1 200.53,-611.89 208,-599 208.08,-598.86 223.65,-589.57 242.41,-578.39"/><polygon id="polygon505" fill="#b2aea4" stroke="#b2aea4" points="244.41 -581.28 251.22 -573.15 240.83 -575.26 244.41 -581.28"/></a></g><g id="a_edge22-label"><a id="a512" xlink:title="github.com/ldsec/CRISP-private/zkbpp.Prove -&gt; github.com/ldsec/CRISP-private/zkbpp.computeChallenge (0.53s)"><text id="text510" x="225" y="-602.8" font-family="Times,serif" font-size="14" text-anchor="middle">0.53s</text></a></g></g><g id="edge15" class="edge"><title id="title516">N10-&gt;N7</title><g id="a_edge15"><a id="a522" xlink:title="github.com/ldsec/CRISP-private/zkbpp.(*Circuit).preprocessShares -&gt; github.com/ldsec/CRISP-private/zkbpp.(*Circuit).generateRandomZqElem (2.06s)"><path id="path518" fill="none" stroke="#b29b7d" d="M520,-352.89C520,-340.14 520,-326.02 520,-312.35"/><polygon id="polygon520" fill="#b29b7d" stroke="#b29b7d" points="523.5 -312.01 520 -302.01 516.5 -312.01 523.5 -312.01"/></a></g><g id="a_edge15-label"><a id="a527" xlink:title="github.com/ldsec/CRISP-private/zkbpp.(*Circuit).preprocessShares -&gt; github.com/ldsec/CRISP-private/zkbpp.(*Circuit).generateRandomZqElem (2.06s)"><text id="text525" x="537" y="-323.8" font-family="Times,serif" font-size="14" text-anchor="middle">2.06s</text></a></g></g><g id="edge7" class="edge"><title id="title531">N11-&gt;N2</title><g id="a_edge7"><a id="a537" xlink:title="github.com/ldsec/CRISP-private/zkbpp.(*Circuit).Evaluate -&gt; main.runCrisp.func1 (4.19s)"><path id="path533" fill="none" stroke="#b27846" d="M64.03,-516.82C90.94,-493.1 134.66,-454.56 164.34,-428.4"/><polygon id="polygon535" fill="#b27846" stroke="#b27846" points="166.75 -430.95 171.94 -421.71 162.12 -425.69 166.75 -430.95"/></a></g><g id="a_edge7-label"><a id="a542" xlink:title="github.com/ldsec/CRISP-private/zkbpp.(*Circuit).Evaluate -&gt; main.runCrisp.func1 (4.19s)"><text id="text540" x="140" y="-467.8" font-family="Times,serif" font-size="14" text-anchor="middle">4.19s</text></a></g></g><g id="node16" class="node"><title id="title546">N16</title><g id="a_node16"><a id="a560" xlink:title="github.com/ldsec/CRISP-private/zkbpp.(*Circuit).generateShares (1.09s)"><polygon id="polygon548" fill="#edebe9" stroke="#b2a896" points="359.5 -438.5 254.5 -438.5 254.5 -360.5 359.5 -360.5 359.5 -438.5"/><text id="text550" x="307" y="-424.1" font-family="Times,serif" font-size="13" text-anchor="middle">zkbpp</text><text id="text552" x="307" y="-410.1" font-family="Times,serif" font-size="13" text-anchor="middle">(*Circuit)</text><text id="text554" x="307" y="-396.1" font-family="Times,serif" font-size="13" text-anchor="middle">generateShares</text><text id="text556" x="307" y="-382.1" font-family="Times,serif" font-size="13" text-anchor="middle">0.43s (1.25%)</text><text id="text558" x="307" y="-368.1" font-family="Times,serif" font-size="13" text-anchor="middle">of 1.09s (3.16%)</text></a></g></g><g id="edge17" class="edge"><title id="title564">N11-&gt;N16</title><g id="a_edge17"><a id="a570" xlink:title="github.com/ldsec/CRISP-private/zkbpp.(*Circuit).Evaluate -&gt; github.com/ldsec/CRISP-private/zkbpp.(*Circuit).generateShares (1.09s)"><path id="path566" fill="none" stroke="#b2a896" d="M59.59,-516.95C67.89,-509.36 78.16,-501.55 89,-497 126.68,-481.19 238.85,-502.9 272,-479 282.51,-471.43 289.91,-459.96 295.11,-448.12"/><polygon id="polygon568" fill="#b2a896" stroke="#b2a896" points="298.45 -449.2 298.82 -438.61 291.93 -446.65 298.45 -449.2"/></a></g><g id="a_edge17-label"><a id="a575" xlink:title="github.com/ldsec/CRISP-private/zkbpp.(*Circuit).Evaluate -&gt; github.com/ldsec/CRISP-private/zkbpp.(*Circuit).generateShares (1.09s)"><text id="text573" x="304" y="-467.8" font-family="Times,serif" font-size="14" text-anchor="middle">1.09s</text></a></g></g><g id="edge9" class="edge"><title id="title579">N15-&gt;N6</title><g id="a_edge9"><a id="a585" xlink:title="github.com/ldsec/CRISP-private/zkbpp.Preprocess -&gt; github.com/ldsec/CRISP-private/zkbpp.(*Circuit).preprocess (3.61s)"><path id="path581" fill="none" stroke="#b28355" d="M568.48,-641.93C564.37,-629.77 558.39,-613.16 552,-599 547.65,-589.36 542.36,-579.14 537.35,-569.97"/><polygon id="polygon583" fill="#b28355" stroke="#b28355" points="540.39 -568.24 532.47 -561.2 534.27 -571.64 540.39 -568.24"/></a></g><g id="a_edge9-label"><a id="a590" xlink:title="github.com/ldsec/CRISP-private/zkbpp.Preprocess -&gt; github.com/ldsec/CRISP-private/zkbpp.(*Circuit).preprocess (3.61s)"><text id="text588" x="575" y="-602.8" font-family="Times,serif" font-size="14" text-anchor="middle">3.61s</text></a></g></g><g id="edge23" class="edge"><title id="title594">N15-&gt;N13</title><g id="a_edge23"><a id="a600" xlink:title="github.com/ldsec/CRISP-private/zkbpp.Preprocess -&gt; github.com/ldsec/CRISP-private/zkbpp.computeOffsetCommit (0.42s)"><path id="path596" fill="none" stroke="#b2afa7" d="M590.33,-641.95C605.64,-625.97 629.12,-601.46 649.22,-580.48"/><polygon id="polygon598" fill="#b2afa7" stroke="#b2afa7" points="651.78 -582.87 656.17 -573.22 646.73 -578.02 651.78 -582.87"/></a></g><g id="a_edge23-label"><a id="a605" xlink:title="github.com/ldsec/CRISP-private/zkbpp.Preprocess -&gt; github.com/ldsec/CRISP-private/zkbpp.computeOffsetCommit (0.42s)"><text id="text603" x="648" y="-602.8" font-family="Times,serif" font-size="14" text-anchor="middle">0.42s</text></a></g></g><g id="edge20" class="edge"><title id="title609">N16-&gt;N7</title><g id="a_edge20"><a id="a615" xlink:title="github.com/ldsec/CRISP-private/zkbpp.(*Circuit).generateShares -&gt; github.com/ldsec/CRISP-private/zkbpp.(*Circuit).generateRandomZqElem (0.61s)"><path id="path611" fill="none" stroke="#b2ada2" d="M359.65,-360.93C382.01,-344.97 408.66,-325.95 433.76,-308.04"/><polygon id="polygon613" fill="#b2ada2" stroke="#b2ada2" points="436.1 -310.68 442.2 -302.02 432.03 -304.98 436.1 -310.68"/></a></g><g id="a_edge20-label"><a id="a620" xlink:title="github.com/ldsec/CRISP-private/zkbpp.(*Circuit).generateShares -&gt; github.com/ldsec/CRISP-private/zkbpp.(*Circuit).generateRandomZqElem (0.61s)"><text id="text618" x="431" y="-323.8" font-family="Times,serif" font-size="14" text-anchor="middle">0.61s</text></a></g></g><g id="edge5" class="edge"><title id="title624">N17-&gt;N5</title><g id="a_edge5"><a id="a630" xlink:title="github.com/ldsec/CRISP-private/zkbpp.(*Circuit).RqVarFromZqArray -&gt; github.com/ldsec/lattigo/ring.(*Ring).SetCoefficientsBigint (6.43s)"><path id="path626" fill="none" stroke="#b24e0c" d="M196,-211.27C196,-193.34 196,-170.41 196,-148.26"/><polygon id="polygon628" fill="#b24e0c" stroke="#b24e0c" points="199.5 -148.15 196 -138.15 192.5 -148.15 199.5 -148.15"/></a></g><g id="a_edge5-label"><a id="a635" xlink:title="github.com/ldsec/CRISP-private/zkbpp.(*Circuit).RqVarFromZqArray -&gt; github.com/ldsec/lattigo/ring.(*Ring).SetCoefficientsBigint (6.43s)"><text id="text633" x="213" y="-159.8" font-family="Times,serif" font-size="14" text-anchor="middle">6.43s</text></a></g></g><g id="edge11" class="edge"><title id="title639">N18-&gt;N2</title><g id="a_edge11"><a id="a645" xlink:title="github.com/ldsec/CRISP-private/zkbpp.(*Circuit).verify -&gt; main.runCrisp.func1 (2.92s)"><path id="path641" fill="none" stroke="#b28e66" d="M403.34,-516.7C395.29,-509.27 385.41,-501.63 375,-497 318.89,-472.03 288.51,-513.93 238,-479 221.63,-467.68 211.11,-447.9 204.69,-431.02"/><polygon id="polygon643" fill="#b28e66" stroke="#b28e66" points="207.97 -429.8 201.37 -421.51 201.36 -432.1 207.97 -429.8"/></a></g><g id="a_edge11-label"><a id="a650" xlink:title="github.com/ldsec/CRISP-private/zkbpp.(*Circuit).verify -&gt; main.runCrisp.func1 (2.92s)"><text id="text648" x="255" y="-467.8" font-family="Times,serif" font-size="14" text-anchor="middle">2.92s</text></a></g></g></g></svg>